{"title":"RAJA NATWARLAL(2014) HINDI CAM - Team Telly Exclusive","uid":10916887,"size":696565785,"categoryP":"video","categoryS":"movies","magnet":"?xt=urn:btih:380973bd60696a76eede8e36122b643e506140f6&amp;dn=RAJA+NATWARLAL%282014%29+HINDI+CAM+-+Team+Telly+Exclusive&amp;tr=udp%3A%2F%2Ftracker.openbittorrent.com%3A80&amp;tr=udp%3A%2F%2Fopen.demonii.com%3A1337&amp;tr=udp%3A%2F%2Ftracker.coppersurfer.tk%3A6969&amp;tr=udp%3A%2F%2Fexodus.desync.com%3A6969","seeders":1,"leechers":1,"uploader":"TeX","files":8,"time":1409313268,"description":"[img]https://dyncdn.me/posters2/3/380973bd60696a76eede8e36122b643e506140f6.jpg[/img]\n\n[mediainfo]General\nComplete name : /home/rt/downloads/Rise.of.the.Planet.of.the.Apes.2011.1080p.BluRay.x264.DTS-WiKi/RAJA NATWARLAL(2014) Untouched NTSC CAM- Team Telly Exclusive/VIDEO_TS/VTS_01_1.VOB\nFormat : MPEG-PS\nFile size : 664 MiB\nDuration : 2h 7mn\nOverall bit rate mode : Variable\nOverall bit rate : 726 Kbps\n\nVideo\nID : 224 (0xE0)\nFormat : MPEG Video\nFormat version : Version 2\nFormat profile : Main@Main\nFormat settings, BVOP : Yes\nFormat settings, Matrix : Default\nFormat settings, GOP : M=3, N=13\nDuration : 2h 7mn\nBit rate mode : Variable\nBit rate : 584 Kbps\nMaximum bit rate : 9 672 Kbps\nWidth : 352 pixels\nHeight : 288 pixels\nDisplay aspect ratio : 4:3\nFrame rate : 25.000 fps\nStandard : PAL\nColor space : YUV\nChroma subsampling : 4:2:0\nBit depth : 8 bits\nScan type : Progressive\nCompression mode : Lossy\nBits/(Pixel*Frame) : 0.230\nTime code of first frame : 00:00:00:00\nTime code source : Group of pictures header\nStream size : 534 MiB (80%)\n\nAudio\nID : 192 (0xC0)\nFormat : MPEG Audio\nFormat version : Version 1\nFormat profile : Layer 2\nDuration : 2h 7mn\nBit rate mode : Constant\nBit rate : 128 Kbps\nChannel(s) : 2 channels\nSampling rate : 48.0 KHz\nCompression mode : Lossy\nStream size : 117 MiB (18%)\n[/mediainfo]\n\n[img]http://tellypremium.com/images/2014/08/29/7ce6aa565538c81d.jpg[/img]\n[img]http://tellypremium.com/images/2014/08/29/dc5758d09650fcaf.jpg[/img]\n[img]http://tellypremium.com/images/2014/08/29/d46a54f8259d4275.jpg[/img]","torrent":{"xt":"urn:btih:380973bd60696a76eede8e36122b643e506140f6","amp;dn":"RAJA+NATWARLAL%282014%29+HINDI+CAM+-+Team+Telly+Exclusive","amp;tr":["udp%3A%2F%2Ftracker.openbittorrent.com%3A80","udp%3A%2F%2Fopen.demonii.com%3A1337","udp%3A%2F%2Ftracker.coppersurfer.tk%3A6969","udp%3A%2F%2Fexodus.desync.com%3A6969"],"infoHash":"380973bd60696a76eede8e36122b643e506140f6","infoHashBuffer":{"type":"Buffer","data":[56,9,115,189,96,105,106,118,238,222,142,54,18,43,100,62,80,97,64,246]},"announce":[],"urlList":[]}}